<svg width="195" height="74" viewBox="0 0 195 74" fill="none" xmlns="http://www.w3.org/2000/svg">
<g clip-path="url(#clip0_233_3)">
<mask id="path-1-inside-1_233_3" fill="white">
<path d="M98.0996 36.741L54.259 -7.09965L10.4184 36.741L54.259 80.5816L98.0996 36.741Z"/>
</mask>
<path d="M98.0996 36.741L54.259 -7.09965L10.4184 36.741L54.259 80.5816L98.0996 36.741Z" fill="#6FAFDD"/>
<path d="M10.4184 36.741L9.00416 38.1552L7.58994 36.741L9.00416 35.3268L10.4184 36.741ZM54.259 -7.09965L55.6732 -5.68544L11.8326 38.1552L10.4184 36.741L9.00416 35.3268L52.8448 -8.51387L54.259 -7.09965ZM10.4184 36.741L11.8326 35.3268L55.6732 79.1674L54.259 80.5816L52.8448 81.9958L9.00416 38.1552L10.4184 36.741Z" fill="black" mask="url(#path-1-inside-1_233_3)"/>
<mask id="path-3-inside-2_233_3" fill="white">
<path d="M195 0H47V74H195V0Z"/>
</mask>
<path d="M195 0H47V74H195V0Z" fill="#6FAFDD"/>
<path d="M195 0V-2H197V0H195ZM195 74H197V76H195V74ZM195 0V2H47V0V-2H195V0ZM47 74V72H195V74V76H47V74ZM195 74H193V0H195H197V74H195Z" fill="black" mask="url(#path-3-inside-2_233_3)"/>
<path d="M87.285 24.622C89.287 24.622 91.146 24.999 92.862 25.753C94.578 26.481 95.943 27.534 96.957 28.912C97.971 30.29 98.478 31.876 98.478 33.67C98.478 35.308 98.023 36.764 97.113 38.038C96.229 39.312 95.007 40.3 93.447 41.002C91.887 41.704 90.132 42.055 88.182 42.055C87.142 42.055 86.154 41.964 85.218 41.782C84.282 41.6 83.489 41.353 82.839 41.041L82.761 50.44C82.761 51.012 82.579 51.467 82.215 51.805C81.851 52.143 81.37 52.312 80.772 52.312C80.148 52.312 79.654 52.143 79.29 51.805C78.926 51.441 78.757 50.986 78.783 50.44C78.783 49.53 78.809 48.035 78.861 45.955C78.913 43.563 78.939 41.548 78.939 39.91C78.939 37.388 78.887 34.645 78.783 31.681L78.744 30.745L78.627 30.823C78.367 30.953 78.133 31.018 77.925 31.018C77.535 31.018 77.223 30.823 76.989 30.433C76.755 30.043 76.638 29.575 76.638 29.029C76.638 28.639 76.755 28.327 76.989 28.093C77.249 27.833 77.613 27.586 78.081 27.352L78.627 27.04V26.416C78.627 25.74 78.796 25.246 79.134 24.934C79.472 24.596 79.992 24.427 80.694 24.427C81.344 24.427 81.825 24.518 82.137 24.7C82.449 24.856 82.605 25.051 82.605 25.285V25.324C84.139 24.856 85.699 24.622 87.285 24.622ZM87.519 38.818C88.819 38.818 89.963 38.584 90.951 38.116C91.939 37.648 92.706 37.011 93.252 36.205C93.824 35.399 94.11 34.502 94.11 33.514C94.11 32.448 93.798 31.512 93.174 30.706C92.576 29.874 91.744 29.237 90.678 28.795C89.638 28.327 88.494 28.093 87.246 28.093C86.024 28.093 84.49 28.418 82.644 29.068C82.696 30.68 82.722 31.694 82.722 32.11C82.722 32.76 82.748 33.683 82.8 34.879C82.852 36.257 82.865 37.206 82.839 37.726C83.489 38.09 84.23 38.363 85.062 38.545C85.92 38.727 86.739 38.818 87.519 38.818ZM112.08 31.876C113.744 31.876 115.07 32.409 116.058 33.475C117.046 34.541 117.54 35.867 117.54 37.453C117.54 38.961 117.072 40.144 116.136 41.002C115.2 41.86 113.991 42.289 112.509 42.289C111.859 42.289 111.391 42.198 111.105 42.016C110.845 41.808 110.715 41.457 110.715 40.963C110.715 40.521 110.806 40.209 110.988 40.027C111.196 39.819 111.495 39.702 111.885 39.676C113.523 39.546 114.342 38.779 114.342 37.375C114.342 36.699 114.147 36.127 113.757 35.659C113.393 35.191 112.821 34.957 112.041 34.957C111.131 34.957 110.312 35.386 109.584 36.244C108.882 37.102 108.31 38.142 107.868 39.364C107.452 40.586 107.205 41.743 107.127 42.835C106.945 44.785 106.854 46.969 106.854 49.387C106.854 50.557 106.724 51.337 106.464 51.727C106.204 52.117 105.71 52.312 104.982 52.312C104.28 52.312 103.773 52.169 103.461 51.883C103.175 51.571 103.032 51.064 103.032 50.362C103.006 49.868 102.993 47.515 102.993 43.303C102.993 41.197 102.85 38.766 102.564 36.01L102.33 33.007C102.304 32.513 102.447 32.123 102.759 31.837C103.097 31.551 103.565 31.408 104.163 31.408C105.203 31.408 105.749 31.876 105.801 32.812L106.074 36.79C106.542 35.308 107.296 34.125 108.336 33.241C109.376 32.331 110.624 31.876 112.08 31.876ZM132.002 52.234C129.792 52.234 127.894 51.779 126.308 50.869C124.748 49.959 123.565 48.737 122.759 47.203C121.979 45.669 121.589 43.979 121.589 42.133C121.589 40.235 122.018 38.519 122.876 36.985C123.734 35.425 124.943 34.203 126.503 33.319C128.063 32.409 129.844 31.954 131.846 31.954C133.614 31.954 135.2 32.318 136.604 33.046C138.034 33.748 139.152 34.749 139.958 36.049C140.764 37.349 141.167 38.831 141.167 40.495C141.167 41.379 141.037 42.016 140.777 42.406C140.517 42.77 139.984 42.965 139.178 42.991L125.099 43.186C125.099 44.044 125.372 44.928 125.918 45.838C126.464 46.748 127.244 47.515 128.258 48.139C129.298 48.737 130.507 49.036 131.885 49.036C132.873 49.036 133.705 48.906 134.381 48.646C135.083 48.36 135.642 48.035 136.058 47.671C136.474 47.281 136.968 46.774 137.54 46.15C137.826 45.864 138.19 45.721 138.632 45.721C139.048 45.721 139.438 45.89 139.802 46.228C140.192 46.54 140.387 46.904 140.387 47.32C140.387 47.658 140.27 47.983 140.036 48.295C139.308 49.335 138.333 50.258 137.111 51.064C135.889 51.844 134.186 52.234 132.002 52.234ZM137.501 40.222C137.657 40.222 137.761 40.183 137.813 40.105C137.891 40.001 137.93 39.858 137.93 39.676C137.93 38.298 137.345 37.18 136.175 36.322C135.031 35.438 133.588 34.996 131.846 34.996C130.52 34.996 129.337 35.308 128.297 35.932C127.283 36.556 126.49 37.31 125.918 38.194C125.372 39.052 125.099 39.806 125.099 40.456L137.501 40.222ZM153.62 51.844C151.566 51.844 149.525 49.023 147.497 43.381C146.873 41.587 146.34 39.793 145.898 37.999C145.456 36.205 145.235 34.931 145.235 34.177C145.235 33.579 145.404 33.137 145.742 32.851C146.106 32.539 146.587 32.383 147.185 32.383C147.679 32.383 148.095 32.513 148.433 32.773C148.771 33.033 148.979 33.41 149.057 33.904C149.369 36.244 149.967 38.844 150.851 41.704C151.345 43.238 151.865 44.616 152.411 45.838C152.983 47.034 153.386 47.632 153.62 47.632C153.88 47.632 154.309 47.034 154.907 45.838C155.505 44.616 156.077 43.225 156.623 41.665C157.221 39.819 157.65 38.311 157.91 37.141C158.196 35.945 158.404 34.814 158.534 33.748C158.586 33.28 158.781 32.903 159.119 32.617C159.457 32.331 159.912 32.188 160.484 32.188C161.082 32.188 161.55 32.357 161.888 32.695C162.226 33.033 162.395 33.501 162.395 34.099C162.395 34.879 162.161 36.127 161.693 37.843C161.251 39.559 160.679 41.353 159.977 43.225C158.911 46.007 157.858 48.139 156.818 49.621C155.778 51.103 154.712 51.844 153.62 51.844Z" fill="black"/>
</g>
<defs>
<clipPath id="clip0_233_3">
<rect width="195" height="74" fill="white" transform="matrix(-1 0 0 1 195 0)"/>
</clipPath>
</defs>
</svg>
