<svg width="195" height="74" viewBox="0 0 195 74" fill="none" xmlns="http://www.w3.org/2000/svg">
<g clip-path="url(#clip0_233_8)">
<mask id="path-1-inside-1_233_8" fill="white">
<path d="M96.9004 36.741L140.741 -7.09965L184.582 36.741L140.741 80.5816L96.9004 36.741Z"/>
</mask>
<path d="M96.9004 36.741L140.741 -7.09965L184.582 36.741L140.741 80.5816L96.9004 36.741Z" fill="#6FAFDD"/>
<path d="M184.582 36.741L185.996 38.1552L187.41 36.741L185.996 35.3268L184.582 36.741ZM140.741 -7.09965L139.327 -5.68544L183.167 38.1552L184.582 36.741L185.996 35.3268L142.155 -8.51387L140.741 -7.09965ZM184.582 36.741L183.167 35.3268L139.327 79.1674L140.741 80.5816L142.155 81.9958L185.996 38.1552L184.582 36.741Z" fill="black" mask="url(#path-1-inside-1_233_8)"/>
<mask id="path-3-inside-2_233_8" fill="white">
<path d="M0 0H148V74H0V0Z"/>
</mask>
<path d="M0 0H148V74H0V0Z" fill="#6FAFDD"/>
<path d="M0 0V-2H-2V0H0ZM0 74H-2V76H0V74ZM0 0V2H148V0V-2H0V0ZM148 74V72H0V74V76H148V74ZM0 74H2V0H0H-2V74H0Z" fill="black" mask="url(#path-3-inside-2_233_8)"/>
<path d="M53.102 24.154C54.402 24.154 55.052 24.843 55.052 26.221L55.013 39.169C55.013 42.575 54.909 45.162 54.701 46.93C54.493 48.698 54.168 49.92 53.726 50.596C53.284 51.246 52.634 51.571 51.776 51.571C50.97 51.571 50.138 51.207 49.28 50.479C48.448 49.725 47.499 48.594 46.433 47.086C45.393 45.552 43.911 43.251 41.987 40.183C38.867 35.191 36.839 32.019 35.903 30.667L35.942 38.818L35.981 50.011C35.981 50.453 35.799 50.843 35.435 51.181C35.071 51.493 34.603 51.649 34.031 51.649C33.485 51.649 33.017 51.493 32.627 51.181C32.263 50.843 32.081 50.453 32.081 50.011V38.701L32.042 33.436C32.016 32.292 32.003 30.654 32.003 28.522C32.003 27.04 32.159 25.987 32.471 25.363C32.783 24.739 33.381 24.427 34.265 24.427C35.045 24.427 35.799 24.739 36.527 25.363C37.255 25.987 38.022 26.897 38.828 28.093C39.66 29.263 40.895 31.161 42.533 33.787L43.859 35.932C45.887 39.182 47.382 41.548 48.344 43.03C49.332 44.486 50.177 45.682 50.879 46.618C51.035 43.966 51.113 41.483 51.113 39.169V25.87C51.113 25.35 51.282 24.934 51.62 24.622C51.958 24.31 52.452 24.154 53.102 24.154ZM70.5006 52.234C68.2906 52.234 66.3926 51.779 64.8066 50.869C63.2466 49.959 62.0636 48.737 61.2576 47.203C60.4776 45.669 60.0876 43.979 60.0876 42.133C60.0876 40.235 60.5166 38.519 61.3746 36.985C62.2326 35.425 63.4416 34.203 65.0016 33.319C66.5616 32.409 68.3426 31.954 70.3446 31.954C72.1126 31.954 73.6986 32.318 75.1026 33.046C76.5326 33.748 77.6506 34.749 78.4566 36.049C79.2626 37.349 79.6656 38.831 79.6656 40.495C79.6656 41.379 79.5356 42.016 79.2756 42.406C79.0156 42.77 78.4826 42.965 77.6766 42.991L63.5976 43.186C63.5976 44.044 63.8706 44.928 64.4166 45.838C64.9626 46.748 65.7426 47.515 66.7566 48.139C67.7966 48.737 69.0056 49.036 70.3836 49.036C71.3716 49.036 72.2036 48.906 72.8796 48.646C73.5816 48.36 74.1406 48.035 74.5566 47.671C74.9726 47.281 75.4666 46.774 76.0386 46.15C76.3246 45.864 76.6886 45.721 77.1306 45.721C77.5466 45.721 77.9366 45.89 78.3006 46.228C78.6906 46.54 78.8856 46.904 78.8856 47.32C78.8856 47.658 78.7686 47.983 78.5346 48.295C77.8066 49.335 76.8316 50.258 75.6096 51.064C74.3876 51.844 72.6846 52.234 70.5006 52.234ZM75.9996 40.222C76.1556 40.222 76.2596 40.183 76.3116 40.105C76.3896 40.001 76.4286 39.858 76.4286 39.676C76.4286 38.298 75.8436 37.18 74.6736 36.322C73.5296 35.438 72.0866 34.996 70.3446 34.996C69.0186 34.996 67.8356 35.308 66.7956 35.932C65.7816 36.556 64.9886 37.31 64.4166 38.194C63.8706 39.052 63.5976 39.806 63.5976 40.456L75.9996 40.222ZM100.192 49.582C100.4 49.868 100.504 50.128 100.504 50.362C100.504 50.83 100.296 51.246 99.8804 51.61C99.4644 51.948 99.0224 52.117 98.5544 52.117C98.0604 52.117 97.6704 51.922 97.3844 51.532L91.8854 44.434C90.2734 46.774 88.6354 49.127 86.9714 51.493C86.6594 51.935 86.1914 52.156 85.5674 52.156C85.0474 52.156 84.5924 51.987 84.2024 51.649C83.8384 51.285 83.6564 50.882 83.6564 50.44C83.6564 50.232 83.7084 50.024 83.8124 49.816C84.6964 48.646 86.6464 45.903 89.6624 41.587L84.1634 34.372C84.0334 34.19 83.9684 33.982 83.9684 33.748C83.9684 33.332 84.1894 32.942 84.6314 32.578C85.0734 32.214 85.5154 32.032 85.9574 32.032C86.4514 32.032 86.8024 32.188 87.0104 32.5L88.2194 34.06C89.1034 35.152 90.2734 36.66 91.7294 38.584L94.2644 34.957L95.9804 32.5C96.2144 32.162 96.5134 31.993 96.8774 31.993C97.3974 31.993 97.8784 32.201 98.3204 32.617C98.7624 33.033 98.9834 33.449 98.9834 33.865C98.9834 34.021 98.9444 34.164 98.8664 34.294L98.3984 34.957L93.9524 41.47L100.192 49.582ZM115.779 45.175C116.377 45.175 116.806 45.305 117.066 45.565C117.326 45.825 117.456 46.267 117.456 46.891C117.456 48.373 116.975 49.608 116.013 50.596C115.051 51.558 113.829 52.039 112.347 52.039C110.293 52.039 108.811 51.168 107.901 49.426C106.991 47.658 106.536 44.902 106.536 41.158C106.536 39.832 106.575 38.506 106.653 37.18L104.781 37.063C103.767 37.011 103.26 36.478 103.26 35.464C103.26 34.944 103.39 34.567 103.65 34.333C103.936 34.073 104.391 33.956 105.015 33.982L106.926 34.099C107.082 32.461 107.381 30.186 107.823 27.274C107.979 26.338 108.616 25.87 109.734 25.87C110.384 25.87 110.878 26.039 111.216 26.377C111.58 26.715 111.736 27.118 111.684 27.586C111.32 29.848 111.008 32.084 110.748 34.294C112.152 34.346 113.075 34.372 113.517 34.372C114.011 34.372 114.375 34.489 114.609 34.723C114.843 34.931 114.96 35.269 114.96 35.737C114.96 36.309 114.83 36.712 114.57 36.946C114.336 37.154 113.894 37.271 113.244 37.297H110.475C110.397 38.545 110.358 39.832 110.358 41.158C110.358 43.784 110.527 45.734 110.865 47.008C111.203 48.256 111.801 48.88 112.659 48.88C113.647 48.88 114.18 48.113 114.258 46.579C114.258 46.111 114.362 45.76 114.57 45.526C114.804 45.292 115.207 45.175 115.779 45.175Z" fill="black"/>
</g>
<defs>
<clipPath id="clip0_233_8">
<rect width="195" height="74" fill="white"/>
</clipPath>
</defs>
</svg>
