<svg width="103" height="178" viewBox="0 0 103 178" fill="none" xmlns="http://www.w3.org/2000/svg">
<path d="M29.0039 0.0390625C36.1654 1.01562 39.7461 4.27083 39.7461 9.80469L39.2578 11.2695L33.8867 10.293C32.2591 10.6185 31.1198 11.4323 30.4688 12.7344V14.6875H35.3516L42.6758 13.7109C67.4154 44.3099 80.9245 63.8411 83.2031 72.3047C89.7135 80.7682 92.9688 85.9766 92.9688 87.9297C92.9688 89.8828 94.9219 92.1615 98.8281 94.7656L102.734 101.602C101.758 107.786 92.3177 118.529 74.4141 133.828C57.487 152.383 46.9076 165.566 42.6758 173.379H40.7227V172.891L41.2109 166.543L40.7227 166.055H39.7461C37.793 167.682 30.957 171.426 19.2383 177.285L18.2617 176.309V175.82L19.7266 168.496C19.7266 167.52 16.6341 166.055 10.4492 164.102L8.00781 161.172V153.848L6.05469 149.453C8.00781 140.339 20.5404 123.411 43.6523 98.6719C45.2799 98.6719 46.0938 98.1836 46.0938 97.207V96.7188C46.0938 93.138 33.5612 71.9792 8.49609 33.2422C2.96224 25.1042 0.195312 20.2214 0.195312 18.5938L2.63672 17.6172L8.98438 20.0586H9.96094L14.3555 14.6875C18.2617 12.0833 20.2148 9.80469 20.2148 7.85156H18.2617L8.00781 12.7344V12.2461L7.51953 11.2695C11.4258 3.78255 18.5872 0.0390625 29.0039 0.0390625ZM14.8438 30.8008C14.8438 33.0794 18.2617 37.9622 25.0977 45.4492C25.0977 47.0768 29.8177 54.0755 39.2578 66.4453L59.2773 97.207C59.2773 99.8112 61.3932 101.276 65.625 101.602H66.6016L68.5547 99.6484L46.0938 64.4922C40.2344 61.237 37.3047 57.3307 37.3047 52.7734C31.7708 45.612 27.7018 39.1016 25.0977 33.2422C21.8424 29.0104 19.401 26.8945 17.7734 26.8945C16.7969 26.8945 15.8203 28.1966 14.8438 30.8008ZM61.2305 52.7734V53.2617C62.8581 58.7956 70.3451 72.1419 83.6914 93.3008L83.2031 94.7656H82.7148C80.1107 94.7656 74.7396 90.3711 66.6016 81.582V82.5586C70.5078 94.2773 75.3906 100.137 81.25 100.137L91.9922 100.625V99.6484C87.7604 95.0911 80.4362 82.8841 70.0195 63.0273C66.1133 56.1914 63.1836 52.7734 61.2305 52.7734ZM12.8906 152.383V154.336L13.3789 155.312H14.8438C17.1224 155.312 23.7956 150.43 34.8633 140.664C49.5117 129.596 59.2773 118.366 64.1602 106.973H62.6953C60.0911 106.973 44.1406 121.621 14.8438 150.918C13.5417 150.918 12.8906 151.406 12.8906 152.383ZM70.5078 114.785V115.762H71.4844C80.9245 115.762 85.6445 113.809 85.6445 109.902V109.414L83.6914 106.973H81.25C78.3203 106.973 74.7396 109.577 70.5078 114.785ZM26.0742 158.73V160.195L27.5391 161.172C34.0495 161.172 41.6992 154.824 50.4883 142.129C51.7904 142.129 53.2552 140.339 54.8828 136.758C62.0443 136.758 67.2526 132.689 70.5078 124.551V121.621H68.5547C40.2344 145.059 26.0742 157.428 26.0742 158.73Z" fill="#560700"/>
</svg>
