<svg width="103" height="150" viewBox="0 0 103 150" fill="none" xmlns="http://www.w3.org/2000/svg">
<path d="M81.9473 0.175781C87.4811 4.73307 91.0618 7.01172 92.6895 7.01172V9.45312C91.7129 9.45312 91.2246 9.94141 91.2246 10.918L92.6895 12.8711H94.1543L96.1074 11.8945C97.4095 11.8945 98.5488 12.8711 99.5254 14.8242C99.5254 21.0091 84.3887 36.9596 54.1152 62.6758C49.5579 65.2799 47.2793 67.7214 47.2793 70V71.4648C47.2793 75.0456 51.5111 81.0677 59.9746 89.5312C71.3678 104.831 85.528 121.595 102.455 139.824V141.289C99.8509 141.289 91.0618 144.056 76.0879 149.59C70.2285 149.59 59.3236 139.336 43.373 118.828C16.0293 89.5312 2.35742 73.0924 2.35742 69.5117L0.892578 67.5586V66.582L1.38086 65.6055C5.93815 68.2096 9.35612 69.5117 11.6348 69.5117L20.4238 54.375V52.9102L5.77539 55.3516H5.28711V54.375C18.6335 42.3307 36.0488 28.6589 57.5332 13.3594C67.2988 5.22135 75.4368 0.826823 81.9473 0.175781ZM74.1348 30.4492V32.4023C78.041 32.4023 81.7845 28.6589 85.3652 21.1719V18.2422H83.9004C80.3197 18.2422 77.0645 22.3112 74.1348 30.4492ZM62.416 28.4961V30.4492H64.8574C69.0892 30.1237 71.2051 28.9844 71.2051 27.0312V26.543L69.7402 25.5664H67.2988C65.3457 25.5664 63.7181 26.543 62.416 28.4961ZM31.6543 37.7734H32.6309C37.5137 36.4714 39.9551 34.0299 39.9551 30.4492C36.6999 30.4492 33.9329 32.8906 31.6543 37.7734ZM48.2559 48.0273L48.7441 48.5156H49.7207C52.6504 48.1901 56.2311 45.0977 60.4629 39.2383V37.2852H58.0215C51.5111 42.168 48.2559 45.7487 48.2559 48.0273ZM68.7637 120.781L67.2988 122.246C69.252 126.803 71.5306 129.896 74.1348 131.523L75.1113 131.035V127.129C73.1582 124.199 71.0423 122.083 68.7637 120.781ZM72.1816 138.848H71.2051V141.289C72.1816 143.568 73.8092 144.707 76.0879 144.707H77.0645V144.219C77.0645 141.615 75.4368 139.824 72.1816 138.848Z" fill="#560700"/>
</svg>
