<svg width="14" height="24" viewBox="0 0 14 24" fill="none" xmlns="http://www.w3.org/2000/svg">
<path d="M3.77051 0.705078C4.7015 0.832031 5.16699 1.25521 5.16699 1.97461L5.10352 2.16504L4.40527 2.03809C4.19368 2.0804 4.04557 2.1862 3.96094 2.35547V2.60938H4.5957L5.54785 2.48242C8.764 6.46029 10.5202 8.99935 10.8164 10.0996C11.6628 11.1999 12.0859 11.877 12.0859 12.1309C12.0859 12.3848 12.3398 12.681 12.8477 13.0195L13.3555 13.9082C13.2285 14.7122 12.0013 16.1087 9.67383 18.0977C7.47331 20.5098 6.09798 22.2236 5.54785 23.2393H5.29395V23.1758L5.35742 22.3506L5.29395 22.2871H5.16699C4.91309 22.4987 4.02441 22.9854 2.50098 23.7471L2.37402 23.6201V23.5566L2.56445 22.6045C2.56445 22.4775 2.16243 22.2871 1.3584 22.0332L1.04102 21.6523V20.7002L0.787109 20.1289C1.04102 18.944 2.67025 16.7435 5.6748 13.5273C5.88639 13.5273 5.99219 13.4639 5.99219 13.3369V13.2734C5.99219 12.8079 4.36296 10.0573 1.10449 5.02148C0.385091 3.96354 0.0253906 3.32878 0.0253906 3.11719L0.342773 2.99023L1.16797 3.30762H1.29492L1.86621 2.60938C2.37402 2.27083 2.62793 1.97461 2.62793 1.7207H2.37402L1.04102 2.35547V2.29199L0.977539 2.16504C1.48535 1.19173 2.41634 0.705078 3.77051 0.705078ZM1.92969 4.7041C1.92969 5.00033 2.37402 5.63509 3.2627 6.6084C3.2627 6.81999 3.8763 7.72982 5.10352 9.33789L7.70605 13.3369C7.70605 13.6755 7.98112 13.8659 8.53125 13.9082H8.6582L8.91211 13.6543L5.99219 9.08398C5.23047 8.66081 4.84961 8.15299 4.84961 7.56055C4.13021 6.62956 3.60124 5.7832 3.2627 5.02148C2.83952 4.47135 2.52214 4.19629 2.31055 4.19629C2.18359 4.19629 2.05664 4.36556 1.92969 4.7041ZM7.95996 7.56055V7.62402C8.17155 8.34342 9.14486 10.0785 10.8799 12.8291L10.8164 13.0195H10.7529C10.4144 13.0195 9.71615 12.4482 8.6582 11.3057V11.4326C9.16602 12.9561 9.80078 13.7178 10.5625 13.7178L11.959 13.7812V13.6543C11.4089 13.0618 10.4567 11.4749 9.10254 8.89355C8.59473 8.00488 8.21387 7.56055 7.95996 7.56055ZM1.67578 20.5098V20.7637L1.73926 20.8906H1.92969C2.22591 20.8906 3.09342 20.2559 4.53223 18.9863C6.43652 17.5475 7.70605 16.0876 8.34082 14.6064H8.15039C7.81185 14.6064 5.73828 16.5107 1.92969 20.3193C1.76042 20.3193 1.67578 20.3828 1.67578 20.5098ZM9.16602 15.6221V15.749H9.29297C10.5202 15.749 11.1338 15.4951 11.1338 14.9873V14.9238L10.8799 14.6064H10.5625C10.1816 14.6064 9.71615 14.945 9.16602 15.6221ZM3.38965 21.335V21.5254L3.58008 21.6523C4.42643 21.6523 5.4209 20.8271 6.56348 19.1768C6.73275 19.1768 6.92318 18.944 7.13477 18.4785C8.06576 18.4785 8.74284 17.9495 9.16602 16.8916V16.5107H8.91211C5.23047 19.5576 3.38965 21.1657 3.38965 21.335Z" fill="560002"/>
</svg>
