<svg width="15" height="21" viewBox="0 0 15 21" fill="none" xmlns="http://www.w3.org/2000/svg">
<path d="M11.3481 0.672852C12.0675 1.2653 12.533 1.56152 12.7446 1.56152V1.87891C12.6177 1.87891 12.5542 1.94238 12.5542 2.06934L12.7446 2.32324H12.9351L13.189 2.19629C13.3582 2.19629 13.5063 2.32324 13.6333 2.57715C13.6333 3.38118 11.6655 5.45475 7.72998 8.79785C7.13753 9.13639 6.84131 9.45378 6.84131 9.75V9.94043C6.84131 10.4059 7.39144 11.1888 8.4917 12.2891C9.97282 14.278 11.8136 16.4574 14.0142 18.8271V19.0176C13.6756 19.0176 12.533 19.3773 10.5864 20.0967C9.82471 20.0967 8.40706 18.7637 6.3335 16.0977C2.77881 12.2891 1.00146 10.152 1.00146 9.68652L0.811035 9.43262V9.30566L0.874512 9.17871C1.46696 9.51725 1.9113 9.68652 2.20752 9.68652L3.3501 7.71875V7.52832L1.4458 7.8457H1.38232V7.71875C3.11735 6.15299 5.38135 4.37565 8.17432 2.38672C9.44385 1.32878 10.5018 0.757487 11.3481 0.672852ZM10.3325 4.6084V4.8623C10.8403 4.8623 11.327 4.37565 11.7925 3.40234V3.02148H11.6021C11.1366 3.02148 10.7134 3.55046 10.3325 4.6084ZM8.80908 4.35449V4.6084H9.12646C9.6766 4.56608 9.95166 4.41797 9.95166 4.16406V4.10059L9.76123 3.97363H9.44385C9.18994 3.97363 8.97835 4.10059 8.80908 4.35449ZM4.81006 5.56055H4.93701C5.57178 5.39128 5.88916 5.07389 5.88916 4.6084C5.46598 4.6084 5.10628 4.92578 4.81006 5.56055ZM6.96826 6.89355L7.03174 6.95703H7.15869C7.53955 6.91471 8.00505 6.5127 8.55518 5.75098V5.49707H8.23779C7.39144 6.13184 6.96826 6.59733 6.96826 6.89355ZM9.63428 16.3516L9.44385 16.542C9.69775 17.1344 9.99398 17.5365 10.3325 17.748L10.4595 17.6846V17.1768C10.2056 16.7959 9.9305 16.5208 9.63428 16.3516ZM10.0786 18.7002H9.95166V19.0176C10.0786 19.3138 10.2902 19.4619 10.5864 19.4619H10.7134V19.3984C10.7134 19.0599 10.5018 18.8271 10.0786 18.7002Z" fill="#560002"/>
</svg>
